<?xml version="1.0" encoding="UTF-8"?>
<svg id="Layer_1" data-name="Layer 1" xmlns="http://www.w3.org/2000/svg" viewBox="0 0 1058.18 1067.13">
  <defs>
    <style>
      .cls-1 {
        font-family: Poppins-Light, Poppins;
        font-size: 56.31px;
        font-weight: 300;
      }

      .cls-1, .cls-2 {
        fill: #fff;
      }

      .cls-2, .cls-3 {
        stroke-width: 0px;
      }

      .cls-3 {
        fill: #f72;
      }
    </style>
  </defs>
  <path class="cls-3" d="m2.5,499.46c2.21,4.58,4.43,9.17,6.64,13.75,2.29-12.91,11.55-25.1,1.38-38.28-2.17-2.82-1.18-8.67-.53-12.96,3.32-22.13,8.79-44.11,9.87-66.32.61-12.49,1.84-23.59,8.45-34.02.7-1.1,1.51-2.14,2.7-3.8,1.86,2.88,3.12,4.83,4.39,6.78,9.38-30.13,18.63-59.92,27.94-89.69.52-1.67,1.3-3.3,2.23-4.79,14.75-23.79,29.43-47.61,44.53-71.18,1.2-1.87,5.5-1.53,7.99-2.88,2.45-1.33,4.97-3.14,6.56-5.38,11.91-16.72,22.95-33.9,43.13-42.73,5.29-2.32,8.25-9.96,14.8-13.85-2.24,4.21-4.67,8.34-6.68,12.66-4.7,10.09-8.95,20.41-13.92,30.35-1.5,3-4.6,5.37-7.33,7.58-13.35,10.81-25.24,22.26-36.35,36.03-10.83,13.43-11.73,30.14-23.53,42.9-10.88,11.76-13.94,30.55-21.35,45.8-4.13,8.51-9.81,16.33-15.33,24.08-11.7,16.41-13.91,35.51-16.36,54.63-1.08,8.43-1.85,17.01-4.17,25.12-1.68,5.89.06,14.63-10.76,15.99-1.43.18-1.58,14.43-1.39,22.14.13,5.52,2.72,11,2.66,16.49-.33,29.97,1.67,60.34-2.62,89.78-3.83,26.27.43,49.02,12.48,71.48-5.68,35.85,25.34,57.27,35.27,87.28-.11-2.44.14-4.96-.38-7.32-9.15-41.91-19.58-83.58-27.1-125.78-3.58-20.06-.4-41.25-2.75-61.65-1.23-10.66,5.36-20.56,2.56-29.6-6.84-22.07,10.64-40.73,7.11-61.15-3.32-19.19.23-36.69,7.15-53.62,7.83-19.15,17.9-37.37,26.78-56.1,16.22-34.21,27.04-71.32,53.71-99.9,15.16-16.25,30.3-32.53,45.82-48.42C286.24,70.32,408.5,19.48,551.49,17.29c3.81-.06,7.63,0,12.09-3.16-4.82-1.61-9.61-3.37-14.49-4.79-5.11-1.49-10.32-2.67-15.55-6.34,12.39-1.01,25.02-4.05,37.11-2.62,30.3,3.6,61.89,1.96,89.59,18.51,1.82,1.09,4.28,2.25,6.18,1.91,29.03-5.24,51.47,11.53,72.28,26.02,12.11,8.43,25.27,13.87,37.59,21.15,4.55,2.69,12.02.43,20.55.43-.24.85-1.33,4.76-2.84,10.2,3.24,1.93,8.14,4.78,12.96,7.74,154.89,95.04,240.34,233.45,250.39,414.36,7.58,136.45-37.02,257.48-128.47,359.81-29.98,33.55-62.81,64.56-94.52,96.56-4.16,4.2-9.36,7.37-14.07,11.01-.81-.93-1.61-1.85-2.42-2.78,5.62-4.79,11.25-9.57,16.87-14.36-.71-1.03-1.41-2.07-2.12-3.1-12.3,12.49-33.94,9.95-41.92,30.25-1.51,3.85-7.47,11.22-14.87,3.36-1.41-1.49-6.58-.83-9.22.46-17.14,8.37-34.06,17.19-51.04,25.86.06-.22.49-1.93.79-3.12-40.67,8.78-81.57,17.61-122.48,26.45-.11.5-.23,1.01-.34,1.51h61.52c-22.37,14.97-46.29,1.2-65.84,13.01h33.98c-15.39,8.98-30.39,14.55-48.46,12.04-17.71-2.46-36.06.16-54.06-.77-41.34-2.14-81.96-8.1-120.65-24.18-5.64-2.35-13.13-.15-19.75-.34-2.82-.08-5.82-.41-8.4-1.47-19.85-8.15-39.55-16.69-59.48-24.62-3.79-1.51-8.44-.89-12.69-1.25-.48,1.48-.96,2.96-1.45,4.45,9.96,3.8,20.2,7.01,29.78,11.61,6.81,3.26,12.7,8.42,19.04,12.67,3.68,2.47,7.14,5.77,11.22,7.05,15.07,4.72,30.32,8.85,45.56,13.02,7.75,2.12,15.7,3.52,23.36,5.9,3.07.96,5.6,3.67,7.28,7.4-55.82-4.49-103.42-29.7-151.93-55.54,2.08-1.85,3.49-3.1,5.69-5.06-9.73-7.3-19.28-14.53-28.93-21.64-1.77-1.31-4.41-3.46-5.8-2.95-17.07,6.3-27.56-6.47-37.29-15.12-34.39-30.54-67.84-62.2-100.38-94.7-8.1-8.09-12-20.69-16.85-31.65-4.3-9.72-7.7-18.23-18.84-23.96-6.2-3.19-9.11-16.05-10.2-24.95-1.08-8.84,3.87-18.68-7.58-25.28-1.76,2.19-3.53,4.39-5.63,6.99-.88-1.11-1.95-1.91-2.27-2.93-5.95-19.67-7.58-42.24-18.58-58.47-22.33-32.94-20.11-71.49-31.55-106.65-.14-.42-.18-.88-.27-1.32-2.62-12.25-7.37-22.89-.72-37.17,5.71-12.26,2.4-28.93,2.22-43.64-.1-7.9-2-15.79-3.09-23.68l-.02.04Z"/>
  <path class="cls-2" d="m577.82,542.81c0,3.91.26,7.13.79,9.68.53,2.55,1.39,4.88,2.59,6.98h31.51c1.35,0,2.55.45,3.6,1.35,1.05.9,1.95,2.02,2.7,3.38.75,1.35,1.35,2.74,1.8,4.16.45,1.43.68,2.67.68,3.71h-33.99v146.98c-3,0-5.93-.53-8.78-1.57s-5.33-2.85-7.43-5.4v-140.01h-27.46c-1.35,0-2.55-.45-3.6-1.35-1.05-.9-1.95-2.03-2.7-3.38-.75-1.35-1.35-2.74-1.8-4.17-.45-1.42-.68-2.66-.68-3.71h38.04c-2.85-3-5.37-6.71-7.54-11.14-2.18-4.42-3.26-9.64-3.26-15.64,0-6.3,1.46-12.01,4.39-17.11,2.93-5.1,7.01-9.45,12.27-13.05,5.25-3.6,11.55-6.34,18.91-8.22,7.35-1.87-23.74,8.2-20.03,48.51Z"/>
  <path class="cls-2" d="m715.46,572.07v146.98c-3,0-5.93-.53-8.78-1.57-2.85-1.05-5.33-2.85-7.43-5.4v-27.46c-4.2,3.75-9.08,6.79-14.63,9.12-5.55,2.33-12.08,3.49-19.58,3.49-6.15,0-12.75-1.65-19.81-4.95-7.05-3.3-13.62-7.62-19.7-12.94-6.08-5.33-11.14-11.33-15.19-18.01-4.05-6.68-6.08-13.32-6.08-19.92,0-7.2,1.31-13.58,3.94-19.13,2.62-5.55,6.19-10.24,10.69-14.07,4.5-3.83,9.79-6.71,15.87-8.66,6.08-1.95,12.57-2.93,19.47-2.93,9.6,0,18.15,2.18,25.66,6.53,7.5,4.35,13.95,9.38,19.36,15.08v-46.14h-107.14c-1.35,0-2.55-.45-3.6-1.35-1.05-.9-1.95-2.03-2.7-3.38-.75-1.35-1.35-2.74-1.8-4.17-.45-1.42-.68-2.66-.68-3.71h157.34c1.35,0,2.55.45,3.6,1.35,1.05.9,1.95,2.02,2.7,3.38.75,1.35,1.35,2.74,1.8,4.16.45,1.43.68,2.67.68,3.71h-33.99Zm-16.21,51.77c-4.8-4.05-9.87-7.24-15.19-9.57-5.33-2.33-11.44-3.49-18.35-3.49-6.45,0-12.42.94-17.89,2.81-5.48,1.88-10.24,4.58-14.29,8.1-4.05,3.53-7.2,7.92-9.45,13.17-2.25,5.26-3.38,11.26-3.38,18.01,0,5.1.83,9.6,2.48,13.51s3.86,7.2,6.64,9.9c2.78,2.7,6.08,4.72,9.9,6.08,3.83,1.35,7.99,2.02,12.49,2.02,4.95,0,9.79-.71,14.52-2.14,4.73-1.42,9.15-3.49,13.28-6.19,4.13-2.7,7.84-5.93,11.14-9.68,3.3-3.75,6-7.88,8.1-12.38v-30.16Z"/>
  <path class="cls-2" d="m729.86,572.07c-.6,0-1.39-.34-2.36-1.01-.98-.68-1.95-1.58-2.93-2.7-.98-1.13-1.8-2.44-2.48-3.94-.68-1.5-1.01-3.15-1.01-4.95h75.86c1.95,0,4.57.98,7.88,2.93,3.3,1.95,6.53,4.35,9.68,7.2,3.15,2.85,5.89,5.89,8.22,9.11,2.33,3.23,3.49,6.04,3.49,8.44,0,3-1.46,5.51-4.39,7.54-2.93,2.02-6.34,3.41-10.24,4.16l-37.59,7.65c-3.9.75-7.2,2.14-9.9,4.16-2.7,2.02-4.05,4.92-4.05,8.66,0,2.7.67,5.03,2.02,6.98,1.35,1.95,3.15,3.75,5.4,5.4,5.7-3,12.34-5.25,19.92-6.75,7.57-1.5,15.87-2.33,24.87-2.48,2.85,1.65,5.1,3.68,6.75,6.08,1.65,2.4,3,5.1,4.05,8.1-8.41,0-16.13.71-23.19,2.14-7.05,1.43-13.13,3.53-18.23,6.3-5.1,2.78-9.12,6.23-12.04,10.35-2.93,4.13-4.39,8.89-4.39,14.29,0,3.9.9,7.47,2.7,10.69,1.8,3.23,4.31,5.96,7.54,8.22s7.05,3.98,11.48,5.18c4.42,1.2,9.19,1.8,14.29,1.8,6.45,0,12.83-.82,19.13-2.48,6.3-1.65,12.27-4.01,17.89-7.09,5.63-3.07,10.77-6.79,15.42-11.14,4.65-4.35,8.55-9.15,11.71-14.41v-88.46h-30.16c-1.35,0-2.55-.45-3.6-1.35-1.05-.9-1.95-2.03-2.7-3.38-.75-1.35-1.35-2.74-1.8-4.17-.45-1.42-.68-2.66-.68-3.71h80.36c1.35,0,2.55.45,3.6,1.35,1.05.9,1.95,2.02,2.7,3.38.75,1.35,1.35,2.74,1.8,4.16.45,1.43.68,2.67.68,3.71h-33.99v146.98c-3.01,0-5.93-.53-8.78-1.57-2.85-1.05-5.33-2.85-7.43-5.4v-22.28c-6,5.4-13.17,9.87-21.5,13.39-8.33,3.53-18.27,5.29-29.83,5.29-4.35,0-9-.71-13.96-2.14-4.95-1.42-9.83-3.38-14.63-5.85-4.8-2.48-9.42-5.36-13.84-8.66-4.43-3.3-8.33-6.83-11.71-10.58-3.38-3.75-6.08-7.58-8.1-11.48-2.02-3.9-3.04-7.73-3.04-11.48,0-5.1,1.28-9.64,3.83-13.62,2.55-3.98,6.15-7.46,10.8-10.47-2.25-1.35-4.47-2.85-6.64-4.5-2.18-1.65-4.13-3.49-5.85-5.51-1.73-2.02-3.15-4.2-4.28-6.53-1.13-2.32-1.69-4.76-1.69-7.32,0-4.8,1.84-8.59,5.51-11.37,3.68-2.77,8.07-4.69,13.17-5.74l37.59-7.65c2.85-.6,5.21-1.54,7.09-2.81,1.87-1.27,2.81-2.81,2.81-4.61,0-1.5-.56-2.89-1.69-4.16-1.13-1.28-2.51-1.92-4.16-1.92h-75.41Z"/>
  <path class="cls-2" d="m946.17,572.07v146.98c-3,0-5.93-.53-8.78-1.57-2.85-1.05-5.33-2.85-7.43-5.4v-140.01h-27.46c-1.35,0-2.55-.45-3.6-1.35-1.05-.9-1.95-2.03-2.7-3.38-.75-1.35-1.35-2.74-1.8-4.17-.45-1.42-.68-2.66-.68-3.71h77.66c1.35,0,2.55.45,3.6,1.35,1.05.9,1.95,2.02,2.7,3.38.75,1.35,1.35,2.74,1.8,4.16.45,1.43.68,2.67.68,3.71h-33.99Z"/>
  <text class="cls-1" transform="translate(162.76 638.42) scale(1 .87)"><tspan x="0" y="0">FOUNDATION</tspan></text>
  <path class="cls-2" d="m176.56,497.83c2.88-7.68,6.88-13.61,11.85-17.93,4.96-4.32,10.73-7.2,17.13-8.64-9.76-2.24-17.77-7.69-24.01-16.17-6.24-8.49-9.45-21.61-9.45-39.7v-67.88h64.52c36.66,3.2,59.24,15.21,67.88,35.86,3.36,8.16,5.12,16.33,5.12,24.33,0,12.17-5.28,26.09-15.69,41.78-10.41,15.69-29.94,23.53-58.43,23.53h-13.13c-17.45,0-26.1,10.57-26.1,31.86v46.27c0,4.32-1.44,7.68-4.16,10.25-2.88,2.72-6.24,4.64-9.93,5.76-3.84,1.12-7.2,1.76-10.09,1.76v-41.47c0-12.01,1.44-21.93,4.48-29.62Zm44.99-28.66h.48l15.21.16c20.01-1.12,33.94-11.05,42.11-29.46,4.64-10.25,6.88-20.49,6.88-30.9,0-8.32-2.4-19.21-7.2-32.82-4.64-13.61-19.05-21.93-42.91-24.82h-39.86v86.61c0,20.81,8.49,31.22,25.3,31.22Z"/>
  <path class="cls-2" d="m350.43,417.95c-9.93,4.48-17.77,10.89-23.53,19.37-.96.48-1.92.8-2.72.8-2.24,0-4.32-1.6-6.08-4.96-.8-1.44-1.12-2.88-1.12-4.32,0-3.04,1.92-6.24,5.92-9.13,18.09-8.16,36.34-12.33,54.75-12.33,17.13,0,31.22,4,42.27,12.01,11.05,8.01,16.65,21.13,17.13,39.38v36.02c-2.88,0-6.24-.64-9.92-1.76-3.68-1.12-7.04-3.04-9.77-5.76-2.88-2.72-4.32-6.08-4.32-10.25v-22.89c0-6.88-1.28-13.77-3.68-20.49v2.72c0,10.09-3.52,18.41-10.73,24.66-7.2,6.24-16.01,12.01-26.42,17.13-11.05,5.28-20.81,11.69-29.3,19.21-8.64,7.52-13.29,17.93-13.77,31.38.16,11.53,2.88,20.17,8.48,25.94,5.6,5.76,12.97,8.64,22.25,8.64,11.53,0,22.73-4.32,33.46-12.81,10.73-8.48,17.29-21.13,19.69-37.94v-2.08c4.64,0,9.93,1.44,15.53,4.16,5.6,2.72,8.48,7.36,8.48,13.77v40.82c-2.88,0-6.24-.64-9.92-1.92-3.68-1.12-7.04-3.04-9.77-5.76-2.88-2.56-4.32-5.92-4.32-10.25v-21.29c-5.92,14.57-14.25,25.13-24.97,31.7-10.89,6.56-21.93,9.93-33.3,9.93-12.97,0-24.49-3.84-34.58-11.37-10.25-7.52-15.37-17.77-15.37-30.58,0-13.77,5.44-24.33,16.33-31.54,10.89-7.2,23.21-13.61,36.82-19.05,14.73-5.6,27.06-12.33,36.98-20.17,7.69-5.92,11.37-13.93,11.37-23.86,0-3.2-.32-6.56-1.12-10.09-5.6-9.13-13.77-13.77-24.49-13.77s-20.33,2.24-30.26,6.72Z"/>
  <path class="cls-2" d="m670.91,512.56v-2.08c4.64,0,9.93,1.44,15.53,4.16s8.48,7.36,8.48,13.77v40.82c-2.88,0-6.24-.64-9.92-1.92-3.68-1.12-7.04-3.04-9.77-5.76-2.88-2.56-4.32-5.92-4.32-10.25v-21.29"/>
  <path class="cls-2" d="m451.46,426.27c0-4.32,1.44-7.69,4.32-10.41,2.72-2.56,6.08-4.48,9.93-5.6,3.68-1.12,7.04-1.76,9.76-1.76v41.14c9.45-12.97,20.81-23.21,33.94-30.9,13.13-7.52,27.86-11.37,44.19-11.37,8.16,1.28,12.33,4.96,12.33,11.05,0,.64,0,1.44-.16,2.24-.96,6.08-4.96,9.29-12.17,9.29-1.44,0-3.2-.16-4.96-.48-7.2-2.08-14.89-3.2-22.73-3.2-20.33,0-33.78,6.88-40.66,20.81-6.56,13.13-9.77,33.78-9.77,62.12v41.95c0,4.32-1.44,7.68-4.16,10.25-2.88,2.72-6.24,4.64-9.92,5.76-3.68,1.28-7.04,1.92-9.93,1.92v-142.8Z"/>
  <path class="cls-2" d="m610.28,571.64c-12.97,0-24.49-3.84-34.58-11.37-10.25-7.52-15.37-17.77-15.37-30.58,0-13.77,5.44-24.33,16.33-31.54,10.89-7.2,23.21-13.61,36.82-19.05,14.73-5.6,27.06-12.33,36.98-20.17,7.69-5.92,11.37-13.93,11.37-23.86,0-3.2-.32-6.56-1.12-10.09-5.6-9.13-13.77-13.77-24.49-13.77s-20.33,2.24-30.26,6.72c-9.93,4.48-17.77,10.89-23.53,19.37-.96.48-1.92.8-2.72.8-2.24,0-4.32-1.6-6.08-4.96-.8-1.44-1.12-2.88-1.12-4.32,0-3.04,1.92-6.24,5.92-9.13,18.09-8.16,36.34-12.33,54.75-12.33,17.13,0,31.22,4,42.27,12.01,11.05,8.01,16.65,21.13,17.13,39.38v36.02c-2.88,0-6.24-.64-9.92-1.76-3.68-1.12-7.04-3.04-9.77-5.76-2.88-2.72-4.32-6.08-4.32-10.25v-22.89c0-6.88-1.28-13.77-3.68-20.49v2.72c0,10.09-3.52,18.41-10.73,24.66-7.2,6.24-16.01,12.01-26.42,17.13-11.05,5.28-20.81,11.69-29.3,19.21-8.64,7.52-13.29,17.93-13.77,31.38.16,11.53,2.88,20.17,8.48,25.94,5.6,5.76,12.97,8.64,22.25,8.64"/>
</svg>